<svg width="100" height="100" viewBox="0 0 100 100" fill="none" xmlns="http://www.w3.org/2000/svg">
<path d="M35 80L42 73L34.25 65H55V55H34.25L42 47L35 40L15 60L35 80V80M65 60L85 40L65 20L58 27L65.75 35H45V45H65.75L58 53L65 60V60M50 100C43.0833 100 36.5833 98.6875 30.5 96.0625C24.4167 93.4375 19.125 89.875 14.625 85.375C10.125 80.875 6.5625 75.5833 3.9375 69.5C1.3125 63.4167 0 56.9167 0 50C0 43.0833 1.3125 36.5833 3.9375 30.5C6.5625 24.4167 10.125 19.125 14.625 14.625C19.125 10.125 24.4167 6.5625 30.5 3.9375C36.5833 1.3125 43.0833 0 50 0C56.9167 0 63.4167 1.3125 69.5 3.9375C75.5833 6.5625 80.875 10.125 85.375 14.625C89.875 19.125 93.4375 24.4167 96.0625 30.5C98.6875 36.5833 100 43.0833 100 50C100 56.9167 98.6875 63.4167 96.0625 69.5C93.4375 75.5833 89.875 80.875 85.375 85.375C80.875 89.875 75.5833 93.4375 69.5 96.0625C63.4167 98.6875 56.9167 100 50 100V100M50 90C61.1667 90 70.625 86.125 78.375 78.375C86.125 70.625 90 61.1667 90 50C90 38.8333 86.125 29.375 78.375 21.625C70.625 13.875 61.1667 10 50 10C38.8333 10 29.375 13.875 21.625 21.625C13.875 29.375 10 38.8333 10 50C10 61.1667 13.875 70.625 21.625 78.375C29.375 86.125 38.8333 90 50 90V90M50 50V50V50V50V50V50V50V50V50V50" fill="#24bace"/>
</svg>
