<svg width="168" height="14" viewBox="0 0 168 14" fill="none" xmlns="http://www.w3.org/2000/svg">
<path d="M159.135 3.33786e-05L153.517 13.0236H156.772L161.684 1.48844H159.768L164.754 13.0236H167.749L162.112 3.33786e-05H159.135Z" fill="white"/>
<path d="M137.75 13.0238V2.45608H133.582V0.000213623H144.931V2.45608H140.764V13.0238H137.75Z" fill="white"/>
<path d="M111.095 13.0238V0.000213623H113.588L121.272 9.37717H120.063V0.000213623H123.04V13.0238H120.565L112.863 3.64681H114.072V13.0238H111.095Z" fill="white"/>
<path d="M89.6841 13.0238V0.000213623H99.5262V2.41887H92.6795V10.6051H99.768V13.0238H89.6841ZM92.4562 7.59108V5.24684H98.7262V7.59108H92.4562Z" fill="white"/>
<path d="M62.9829 13.0238V0.000213623H65.476L71.0203 9.19112H69.6993L75.1506 0.000213623H77.6251L77.6623 13.0238H74.8343L74.8157 4.3352H75.3367L70.9831 11.647H69.6249L65.1783 4.3352H65.8109V13.0238H62.9829Z" fill="white"/>
<path d="M41.5713 13.0238V0.000213623H51.4134V2.41887H44.5667V10.6051H51.6552V13.0238H41.5713ZM44.3434 7.59108V5.24684H50.6134V7.59108H44.3434Z" fill="white"/>
<path d="M21.4131 13.0238V0.000213623H24.4271V10.5679H30.9575V13.0238H21.4131Z" fill="white"/>
<path d="M0 13.0238V0.000244141H9.84208V2.4189H2.99542V10.6051H10.0839V13.0238H0ZM2.77216 7.59111V5.24687H9.04206V7.59111H2.77216Z" fill="white"/>
</svg>
