<svg width="232" height="59" viewBox="0 0 232 59" fill="none" xmlns="http://www.w3.org/2000/svg">
<path d="M49.3852 43.0268L37.2612 50.0268L25.1372 57.0268L0.88916 43.0268V15.0268L13.0132 8.02682L25.1372 1.02682L49.3852 15.0268L43.6053 18.3639L25.1372 7.70106L6.66906 18.3639V39.6897L25.1372 50.3526L39.1056 42.2876H16.873L13.6107 36.5076H38.4865L44.1441 39.997L44.1405 39.9987L49.3852 43.0268Z" stroke="white" stroke-width="0.177848"/>
<g filter="url(#filter0_n_4779_1093)">
<path d="M49.3852 43.0268L37.2612 50.0268L25.1372 57.0268L0.88916 43.0268V15.0268L13.0132 8.02682L25.1372 1.02682L49.3852 15.0268L43.6053 18.3639L25.1372 7.70106L6.66906 18.3639V39.6897L25.1372 50.3526L39.1056 42.2876H16.873L13.6107 36.5076H38.4865L44.1441 39.997L44.1405 39.9987L49.3852 43.0268Z" fill="white"/>
<path d="M49.3852 43.0268L37.2612 50.0268L25.1372 57.0268L0.88916 43.0268V15.0268L13.0132 8.02682L25.1372 1.02682L49.3852 15.0268L43.6053 18.3639L25.1372 7.70106L6.66906 18.3639V39.6897L25.1372 50.3526L39.1056 42.2876H16.873L13.6107 36.5076H38.4865L44.1441 39.997L44.1405 39.9987L49.3852 43.0268Z" fill="white"/>
<path d="M38.6866 27.4818L35.4818 33.1729C26.9189 33.1729 22.118 33.1729 13.5551 33.1729L16.7384 27.4818H38.6866Z" fill="white"/>
<path d="M43.5995 18.367L40.3477 24.1471H18.4236L21.6472 18.367H43.5995Z" fill="white"/>
<path d="M25.3599 0.642052L49.6079 14.6421L50.2739 15.0268L49.6079 15.4116L43.9263 18.6919L40.7349 24.3647L40.6079 24.5913H17.6665L18.0356 23.9301L21.2593 18.1508L21.3862 17.9223H41.9507L25.1372 8.21432L7.11377 18.6206V39.4321L25.1372 49.8383L37.4468 42.7319H16.6138L16.4858 42.5063L13.2231 36.726L12.8491 36.063H38.6128L38.7202 36.1294L44.3774 39.6186L44.4692 39.6753L49.6079 42.6421L50.2739 43.0268L49.6079 43.4116L25.3599 57.4116L25.1372 57.5405L24.9146 57.4116L0.666504 43.4116L0.444824 43.2837V14.77L0.666504 14.6421L24.9146 0.642052L25.1372 0.513145L25.3599 0.642052ZM39.4468 27.0376L39.0737 27.6997L35.8696 33.3911L35.7417 33.6176H12.7974L13.1675 32.9555L16.3501 27.2651L16.478 27.0376H39.4468Z" stroke="white" stroke-opacity="0.1" stroke-width="0.889242"/>
</g>
<path d="M222.521 13.1899L216.902 26.2134H220.158L225.069 14.6783H223.153L228.139 26.2134H231.135L225.497 13.1899H222.521Z" fill="white"/>
<path d="M201.135 26.2136V15.6459H196.967V13.19H208.316V15.6459H204.149V26.2136H201.135Z" fill="white"/>
<path d="M174.48 26.2136V13.19H176.974L184.657 22.567H183.448V13.19H186.425V26.2136H183.95L176.248 16.8366H177.457V26.2136H174.48Z" fill="white"/>
<path d="M153.069 26.2136V13.19H162.911V15.6087H156.065V23.7949H163.153V26.2136H153.069ZM155.841 20.7809V18.4367H162.111V20.7809H155.841Z" fill="white"/>
<path d="M126.368 26.2136V13.19H128.861L134.406 22.3809H133.085L138.536 13.19H141.01L141.048 26.2136H138.22L138.201 17.525H138.722L134.368 24.8368H133.01L128.564 17.525H129.196V26.2136H126.368Z" fill="white"/>
<path d="M104.957 26.2136V13.19H114.799V15.6087H107.952V23.7949H115.04V26.2136H104.957ZM107.729 20.7809V18.4367H113.999V20.7809H107.729Z" fill="white"/>
<path d="M84.7983 26.2136V13.19H87.8124V23.7577H94.3427V26.2136H84.7983Z" fill="white"/>
<path d="M63.3853 26.2136V13.1901H73.2273V15.6087H66.3807V23.795H73.4692V26.2136H63.3853ZM66.1574 20.7809V18.4367H72.4273V20.7809H66.1574Z" fill="white"/>
<path d="M64.776 42.8637V36.0263H67.4426C68.0417 36.0263 68.5529 36.1207 68.9761 36.3096C69.3994 36.4984 69.725 36.7719 69.9529 37.1301C70.1808 37.4882 70.2948 37.9147 70.2948 38.4096C70.2948 38.9045 70.1808 39.331 69.9529 39.6892C69.725 40.0408 69.3994 40.3143 68.9761 40.5097C68.5529 40.6985 68.0417 40.7929 67.4426 40.7929H65.3133L65.7528 40.3339V42.8637H64.776ZM65.7528 40.4315L65.3133 39.9431H67.4133C68.0384 39.9431 68.5106 39.8097 68.8296 39.5427C69.1552 39.2757 69.318 38.898 69.318 38.4096C69.318 37.9212 69.1552 37.5436 68.8296 37.2766C68.5106 37.0096 68.0384 36.8761 67.4133 36.8761H65.3133L65.7528 36.3877V40.4315ZM79.2509 42.8637V36.0263H81.9175C82.8031 36.0263 83.4998 36.2379 84.0077 36.6612C84.5157 37.078 84.7696 37.6608 84.7696 38.4096C84.7696 38.9045 84.6557 39.331 84.4277 39.6892C84.1998 40.0408 83.8742 40.3111 83.451 40.4999C83.0277 40.6887 82.5165 40.7832 81.9175 40.7832H79.7881L80.2277 40.3339V42.8637H79.2509ZM83.8222 42.8637L82.0835 40.3827H83.1286L84.8868 42.8637H83.8222ZM80.2277 40.4315L79.7881 39.9529H81.8882C82.5133 39.9529 82.9854 39.8194 83.3045 39.5524C83.6301 39.2789 83.7928 38.898 83.7928 38.4096C83.7928 37.9212 83.6301 37.5436 83.3045 37.2766C82.9854 37.0096 82.5133 36.8761 81.8882 36.8761H79.7881L80.2277 36.3877V40.4315ZM96.9554 42.9418C96.4344 42.9418 95.9493 42.8539 95.5 42.6781C95.0572 42.5023 94.673 42.2581 94.3474 41.9455C94.0218 41.6264 93.7679 41.2553 93.5855 40.832C93.4032 40.4087 93.312 39.9464 93.312 39.445C93.312 38.9436 93.4032 38.4813 93.5855 38.058C93.7679 37.6347 94.0218 37.2668 94.3474 36.9542C94.673 36.6352 95.0572 36.3877 95.5 36.2119C95.9428 36.0361 96.4279 35.9482 96.9554 35.9482C97.4763 35.9482 97.9549 36.0361 98.3912 36.2119C98.834 36.3812 99.2182 36.6254 99.5438 36.9445C99.8759 37.257 100.13 37.625 100.306 38.0482C100.488 38.4715 100.579 38.9371 100.579 39.445C100.579 39.9529 100.488 40.4185 100.306 40.8418C100.13 41.265 99.8759 41.6362 99.5438 41.9553C99.2182 42.2679 98.834 42.512 98.3912 42.6879C97.9549 42.8572 97.4763 42.9418 96.9554 42.9418ZM96.9554 42.0725C97.3331 42.0725 97.6814 42.0074 98.0005 41.8771C98.3261 41.7469 98.6061 41.5646 98.8405 41.3302C99.0815 41.0892 99.2671 40.8092 99.3973 40.4901C99.534 40.1711 99.6024 39.8227 99.6024 39.445C99.6024 39.0673 99.534 38.7189 99.3973 38.3999C99.2671 38.0808 99.0815 37.804 98.8405 37.5696C98.6061 37.3287 98.3261 37.1431 98.0005 37.0128C97.6814 36.8826 97.3331 36.8175 96.9554 36.8175C96.5712 36.8175 96.2163 36.8826 95.8907 37.0128C95.5716 37.1431 95.2916 37.3287 95.0507 37.5696C94.8098 37.804 94.6209 38.0808 94.4842 38.3999C94.3539 38.7189 94.2888 39.0673 94.2888 39.445C94.2888 39.8227 94.3539 40.1711 94.4842 40.4901C94.6209 40.8092 94.8098 41.0892 95.0507 41.3302C95.2916 41.5646 95.5716 41.7469 95.8907 41.8771C96.2163 42.0074 96.5712 42.0725 96.9554 42.0725ZM110.856 42.8637V36.8761H108.511V36.0263H114.167V36.8761H111.823V42.8637H110.856ZM125.743 42.9418C125.222 42.9418 124.737 42.8539 124.288 42.6781C123.845 42.5023 123.461 42.2581 123.135 41.9455C122.809 41.6264 122.555 41.2553 122.373 40.832C122.191 40.4087 122.1 39.9464 122.1 39.445C122.1 38.9436 122.191 38.4813 122.373 38.058C122.555 37.6347 122.809 37.2668 123.135 36.9542C123.461 36.6352 123.845 36.3877 124.288 36.2119C124.73 36.0361 125.215 35.9482 125.743 35.9482C126.264 35.9482 126.742 36.0361 127.179 36.2119C127.622 36.3812 128.006 36.6254 128.331 36.9445C128.663 37.257 128.917 37.625 129.093 38.0482C129.276 38.4715 129.367 38.9371 129.367 39.445C129.367 39.9529 129.276 40.4185 129.093 40.8418C128.917 41.265 128.663 41.6362 128.331 41.9553C128.006 42.2679 127.622 42.512 127.179 42.6879C126.742 42.8572 126.264 42.9418 125.743 42.9418ZM125.743 42.0725C126.121 42.0725 126.469 42.0074 126.788 41.8771C127.114 41.7469 127.394 41.5646 127.628 41.3302C127.869 41.0892 128.055 40.8092 128.185 40.4901C128.322 40.1711 128.39 39.8227 128.39 39.445C128.39 39.0673 128.322 38.7189 128.185 38.3999C128.055 38.0808 127.869 37.804 127.628 37.5696C127.394 37.3287 127.114 37.1431 126.788 37.0128C126.469 36.8826 126.121 36.8175 125.743 36.8175C125.359 36.8175 125.004 36.8826 124.678 37.0128C124.359 37.1431 124.079 37.3287 123.838 37.5696C123.597 37.804 123.408 38.0808 123.272 38.3999C123.141 38.7189 123.076 39.0673 123.076 39.445C123.076 39.8227 123.141 40.1711 123.272 40.4901C123.408 40.8092 123.597 41.0892 123.838 41.3302C124.079 41.5646 124.359 41.7469 124.678 41.8771C125.004 42.0074 125.359 42.0725 125.743 42.0725ZM141.438 42.9418C140.917 42.9418 140.435 42.8572 139.992 42.6879C139.556 42.512 139.175 42.2679 138.85 41.9553C138.531 41.6362 138.28 41.265 138.097 40.8418C137.915 40.4185 137.824 39.9529 137.824 39.445C137.824 38.9371 137.915 38.4715 138.097 38.0482C138.28 37.625 138.534 37.257 138.859 36.9445C139.185 36.6254 139.566 36.3812 140.002 36.2119C140.445 36.0361 140.927 35.9482 141.448 35.9482C141.975 35.9482 142.46 36.0393 142.903 36.2217C143.352 36.3975 143.733 36.6612 144.046 37.0128L143.411 37.6282C143.151 37.3547 142.858 37.1529 142.532 37.0226C142.206 36.8859 141.858 36.8175 141.487 36.8175C141.103 36.8175 140.745 36.8826 140.412 37.0128C140.087 37.1431 139.804 37.3254 139.563 37.5598C139.322 37.7943 139.133 38.0743 138.996 38.3999C138.866 38.7189 138.801 39.0673 138.801 39.445C138.801 39.8227 138.866 40.1743 138.996 40.4999C139.133 40.819 139.322 41.0957 139.563 41.3302C139.804 41.5646 140.087 41.7469 140.412 41.8771C140.745 42.0074 141.103 42.0725 141.487 42.0725C141.858 42.0725 142.206 42.0074 142.532 41.8771C142.858 41.7404 143.151 41.532 143.411 41.252L144.046 41.8674C143.733 42.219 143.352 42.486 142.903 42.6683C142.46 42.8507 141.972 42.9418 141.438 42.9418ZM155.608 42.9418C155.087 42.9418 154.602 42.8539 154.153 42.6781C153.71 42.5023 153.326 42.2581 153 41.9455C152.675 41.6264 152.421 41.2553 152.238 40.832C152.056 40.4087 151.965 39.9464 151.965 39.445C151.965 38.9436 152.056 38.4813 152.238 38.058C152.421 37.6347 152.675 37.2668 153 36.9542C153.326 36.6352 153.71 36.3877 154.153 36.2119C154.596 36.0361 155.081 35.9482 155.608 35.9482C156.129 35.9482 156.608 36.0361 157.044 36.2119C157.487 36.3812 157.871 36.6254 158.197 36.9445C158.529 37.257 158.783 37.625 158.959 38.0482C159.141 38.4715 159.232 38.9371 159.232 39.445C159.232 39.9529 159.141 40.4185 158.959 40.8418C158.783 41.265 158.529 41.6362 158.197 41.9553C157.871 42.2679 157.487 42.512 157.044 42.6879C156.608 42.8572 156.129 42.9418 155.608 42.9418ZM155.608 42.0725C155.986 42.0725 156.334 42.0074 156.653 41.8771C156.979 41.7469 157.259 41.5646 157.493 41.3302C157.734 41.0892 157.92 40.8092 158.05 40.4901C158.187 40.1711 158.255 39.8227 158.255 39.445C158.255 39.0673 158.187 38.7189 158.05 38.3999C157.92 38.0808 157.734 37.804 157.493 37.5696C157.259 37.3287 156.979 37.1431 156.653 37.0128C156.334 36.8826 155.986 36.8175 155.608 36.8175C155.224 36.8175 154.869 36.8826 154.544 37.0128C154.225 37.1431 153.945 37.3287 153.704 37.5696C153.463 37.804 153.274 38.0808 153.137 38.3999C153.007 38.7189 152.942 39.0673 152.942 39.445C152.942 39.8227 153.007 40.1711 153.137 40.4901C153.274 40.8092 153.463 41.0892 153.704 41.3302C153.945 41.5646 154.225 41.7469 154.544 41.8771C154.869 42.0074 155.224 42.0725 155.608 42.0725ZM168.246 42.8637V36.0263H169.223V42.0139H172.925V42.8637H168.246Z" fill="#24BACE"/>
<defs>
<filter id="filter0_n_4779_1093" x="0" y="0" width="51.1636" height="58.0536" filterUnits="userSpaceOnUse" color-interpolation-filters="sRGB">
<feFlood flood-opacity="0" result="BackgroundImageFix"/>
<feBlend mode="normal" in="SourceGraphic" in2="BackgroundImageFix" result="shape"/>
<feTurbulence type="fractalNoise" baseFrequency="899.64263916015625 899.64263916015625" stitchTiles="stitch" numOctaves="3" result="noise" seed="0" />
<feColorMatrix in="noise" type="luminanceToAlpha" result="alphaNoise" />
<feComponentTransfer in="alphaNoise" result="coloredNoise1">
<feFuncA type="discrete" tableValues="0 0 0 0 0 0 0 0 0 0 0 0 0 0 0 0 0 0 0 1 1 1 1 1 1 1 1 1 1 1 1 1 0 0 0 0 0 0 0 0 0 0 0 0 0 0 0 0 0 0 0 0 0 0 0 0 0 0 0 0 0 0 0 0 0 0 0 0 0 0 0 0 0 0 0 0 0 0 0 0 0 0 0 0 0 0 0 0 0 0 0 0 0 0 0 0 0 0 0 0 "/>
</feComponentTransfer>
<feComposite operator="in" in2="shape" in="coloredNoise1" result="noise1Clipped" />
<feComponentTransfer in="alphaNoise" result="coloredNoise2">
<feFuncA type="discrete" tableValues="0 0 0 0 0 0 0 0 0 0 0 0 0 0 0 0 0 0 0 0 0 0 0 0 0 0 0 0 0 0 0 0 0 0 0 0 0 0 0 0 0 0 0 0 0 0 0 0 0 0 0 0 0 0 0 0 0 0 0 0 0 0 0 0 0 0 0 0 1 1 1 1 1 1 1 1 1 1 1 1 1 0 0 0 0 0 0 0 0 0 0 0 0 0 0 0 0 0 0 0 "/>
</feComponentTransfer>
<feComposite operator="in" in2="shape" in="coloredNoise2" result="noise2Clipped" />
<feFlood flood-color="rgba(255, 255, 255, 0.08)" result="color1Flood" />
<feComposite operator="in" in2="noise1Clipped" in="color1Flood" result="color1" />
<feFlood flood-color="rgba(0, 0, 0, 0.32)" result="color2Flood" />
<feComposite operator="in" in2="noise2Clipped" in="color2Flood" result="color2" />
<feMerge result="effect1_noise_4779_1093">
<feMergeNode in="shape" />
<feMergeNode in="color1" />
<feMergeNode in="color2" />
</feMerge>
</filter>
</defs>
</svg>
