<svg width="30" height="24" viewBox="0 0 30 24" fill="none" xmlns="http://www.w3.org/2000/svg">
<path d="M3 10.5C2.175 10.5 1.46875 10.2062 0.88125 9.61875C0.29375 9.03125 0 8.325 0 7.5V3C0 2.175 0.29375 1.46875 0.88125 0.88125C1.46875 0.29375 2.175 0 3 0H16.5V10.5H3ZM3 7.5H13.5V3H3V7.5ZM3 24C2.175 24 1.46875 23.7062 0.88125 23.1187C0.29375 22.5312 0 21.825 0 21V16.5C0 15.675 0.29375 14.9688 0.88125 14.3813C1.46875 13.7938 2.175 13.5 3 13.5H19.5V24H3ZM3 21H16.5V16.5H3V21ZM22.5 24V10.5H19.5V0H30L27 7.5H30L22.5 24ZM4.125 19.875H6.375V17.625H4.125V19.875ZM4.125 6.375H6.375V4.125H4.125V6.375ZM3 7.5V3V7.5ZM3 21V16.5V21Z" fill="white"/>
</svg>
