<svg width="40" height="50" viewBox="0 0 40 50" fill="none" xmlns="http://www.w3.org/2000/svg">
<path d="M20 50C14.2083 48.5417 9.42708 45.2188 5.65625 40.0312C1.88542 34.8438 0 29.0833 0 22.75V7.5L20 0L40 7.5V22.75C40 29.0833 38.1146 34.8438 34.3438 40.0312C30.5729 45.2188 25.7917 48.5417 20 50V50M20 44.75C24.3333 43.375 27.9167 40.625 30.75 36.5C33.5833 32.375 35 27.7917 35 22.75V10.9375L20 5.3125L5 10.9375V22.75C5 27.7917 6.41667 32.375 9.25 36.5C12.0833 40.625 15.6667 43.375 20 44.75V44.75M20 25V25V25V25V25V25V25V25V25V25M15 35H25C25.7083 35 26.3021 34.7604 26.7812 34.2812C27.2604 33.8021 27.5 33.2083 27.5 32.5V25C27.5 24.2917 27.2604 23.6979 26.7812 23.2188C26.3021 22.7396 25.7083 22.5 25 22.5V22.5V20C25 18.625 24.5104 17.4479 23.5312 16.4688C22.5521 15.4896 21.375 15 20 15C18.625 15 17.4479 15.4896 16.4688 16.4688C15.4896 17.4479 15 18.625 15 20V22.5V22.5C14.2917 22.5 13.6979 22.7396 13.2188 23.2188C12.7396 23.6979 12.5 24.2917 12.5 25V32.5C12.5 33.2083 12.7396 33.8021 13.2188 34.2812C13.6979 34.7604 14.2917 35 15 35V35M17.5 22.5V20C17.5 19.2917 17.7396 18.6979 18.2188 18.2188C18.6979 17.7396 19.2917 17.5 20 17.5C20.7083 17.5 21.3021 17.7396 21.7812 18.2188C22.2604 18.6979 22.5 19.2917 22.5 20V22.5H17.5V22.5" fill="#24bace"/>
</svg>
